{"title":"Almost Human S01E11 HDTV x264 AAC E-Subs [GWC].mp4","uid":9630857,"size":142335304,"categoryP":"video","categoryS":"tv_shows","magnet":"?xt=urn:btih:01dd98380b9f7375e1a55f9ffcb36468cc3f64fd&amp;dn=Almost+Human+S01E11+HDTV+x264+AAC+E-Subs+%5BGWC%5D.mp4&amp;tr=udp%3A%2F%2Ftracker.openbittorrent.com%3A80&amp;tr=udp%3A%2F%2Fopen.demonii.com%3A1337&amp;tr=udp%3A%2F%2Ftracker.coppersurfer.tk%3A6969&amp;tr=udp%3A%2F%2Fexodus.desync.com%3A6969","seeders":1,"leechers":0,"uploader":"canc232","files":1,"time":1392784023,"description":"Almost Human S01E11 HDTV x264 AAC E-Subs [GWC]\n\n\nSCREENS: &lt;a href=&quot;\nhttp://i.imgur.com/vvAIw0U.jpg&quot; rel=&quot;nofollow&quot; target=&quot;_NEW&quot;&gt;\nhttp://i.imgur.com/vvAIw0U.jpg&lt;/a&gt; &lt;a href=&quot;\nhttp://i.imgur.com/ZpIliZ3.jpg&quot; rel=&quot;nofollow&quot; target=&quot;_NEW&quot;&gt;\nhttp://i.imgur.com/ZpIliZ3.jpg&lt;/a&gt; &lt;a href=&quot;\nhttp://i.imgur.com/P4G2k7C.jpg&quot; rel=&quot;nofollow&quot; target=&quot;_NEW&quot;&gt;\nhttp://i.imgur.com/P4G2k7C.jpg&lt;/a&gt;\n\n\nMEDIA INFO :\nGeneral \nFormat : MPEG-4 \nFormat profile : Base Media \nFile size : 136 MiB \nDuration : 42mn 7s \nOverall bit rate : 450 Kbps \n\nVideo \nFormat : AVC \nFormat profile : &lt;a class=&quot;__cf_email__&quot; href=&quot;/cdn-cgi/l/email-protection&quot; data-cfemail=&quot;276f4e404f676b140917&quot;&gt;[email&amp;#160;protected]&lt;/a&gt;&lt;script cf-hash='f9e31' type=&quot;text/javascript&quot;&gt;\n/* &lt;![CDATA[ */!function(){try{var t=&quot;currentScript&quot;in document?document.currentScript:function(){for(var t=document.getElementsByTagName(&quot;script&quot;),e=t.length;e--;)if(t[e].getAttribute(&quot;cf-hash&quot;))return t[e]}();if(t&amp;&amp;t.previousSibling){var e,r,n,i,c=t.previousSibling,a=c.getAttribute(&quot;data-cfemail&quot;);if(a){for(e=&quot;&quot;,r=parseInt(a.substr(0,2),16),n=2;a.length-n;n+=2)i=parseInt(a.substr(n,2),16)^r,e+=String.fromCharCode(i);e=document.createTextNode(e),c.parentNode.replaceChild(e,c)}}}catch(u){}}();/* ]]&gt; */&lt;/script&gt; \nFormat settings, CABAC : Yes \nFormat settings, ReFrames : 4 frames \nDuration : 42mn 4s \nBit rate : 388 Kbps \nMaximum bit rate : 2 216 Kbps \nWidth : 720 pixels \nHeight : 404 pixels \nDisplay aspect ratio : 16:9 \nFrame rate : 23.976 fps \nStream size : 117 MiB (86%) \nTitle : Almost Human S01E11 HDTV x264 AAC E-Subs [GWC] \nWriting library : x264 core\n\nAudio \nFormat : AAC \nFormat profile : HE-AAC / LC \nDuration : 42mn 4s \nBit rate mode : Variable \nChannel(s) : 2 channels \nSampling rate : 48.0 KHz / 24.0 KHz \nStream size : 18.1 MiB (13%) \nLanguage : English \n\nText \nFormat : Timed Text \nTitle : English Subtitle by wilson0804 \nLanguage : English \n\n","torrent":{"xt":"urn:btih:01dd98380b9f7375e1a55f9ffcb36468cc3f64fd","amp;dn":"Almost+Human+S01E11+HDTV+x264+AAC+E-Subs+%5BGWC%5D.mp4","amp;tr":["udp%3A%2F%2Ftracker.openbittorrent.com%3A80","udp%3A%2F%2Fopen.demonii.com%3A1337","udp%3A%2F%2Ftracker.coppersurfer.tk%3A6969","udp%3A%2F%2Fexodus.desync.com%3A6969"],"infoHash":"01dd98380b9f7375e1a55f9ffcb36468cc3f64fd","infoHashBuffer":{"type":"Buffer","data":[1,221,152,56,11,159,115,117,225,165,95,159,252,179,100,104,204,63,100,253]},"announce":[],"urlList":[]}}